<?xml version="1.0" encoding="UTF-8" standalone="no"?>
<!-- Generator: Adobe Illustrator 21.0.0, SVG Export Plug-In . SVG Version: 6.00 Build 0)  -->

<svg
   xmlns:dc="http://purl.org/dc/elements/1.1/"
   xmlns:cc="http://creativecommons.org/ns#"
   xmlns:rdf="http://www.w3.org/1999/02/22-rdf-syntax-ns#"
   xmlns:svg="http://www.w3.org/2000/svg"
   xmlns="http://www.w3.org/2000/svg"
   xmlns:sodipodi="http://sodipodi.sourceforge.net/DTD/sodipodi-0.dtd"
   xmlns:inkscape="http://www.inkscape.org/namespaces/inkscape"
   version="1.1"
   id="Calque_1"
   x="0px"
   y="0px"
   viewBox="0 0 359.99999 360.00001"
   xml:space="preserve"
   sodipodi:docname="logo.svg"
   width="360"
   height="360"
   inkscape:version="0.92.4 (f8dce91, 2019-08-02)"
   inkscape:export-filename="/home/satoshi/neurovidas/src/themes/neurovidas/assets/android-icon-48x48.png"
   inkscape:export-xdpi="12.82"
   inkscape:export-ydpi="12.82"><metadata
   id="metadata520"><rdf:RDF><cc:Work
       rdf:about=""><dc:format>image/svg+xml</dc:format><dc:type
         rdf:resource="http://purl.org/dc/dcmitype/StillImage" /><dc:title /></cc:Work></rdf:RDF></metadata><defs
   id="defs518" /><sodipodi:namedview
   pagecolor="#ffffff"
   bordercolor="#666666"
   borderopacity="1"
   objecttolerance="10"
   gridtolerance="10"
   guidetolerance="10"
   inkscape:pageopacity="0"
   inkscape:pageshadow="2"
   inkscape:window-width="1920"
   inkscape:window-height="965"
   id="namedview516"
   showgrid="false"
   inkscape:zoom="1.5164933"
   inkscape:cx="-49.433115"
   inkscape:cy="174.66699"
   inkscape:window-x="0"
   inkscape:window-y="0"
   inkscape:window-maximized="1"
   inkscape:current-layer="Calque_1"
   inkscape:pagecheckerboard="true" />
<style
   type="text/css"
   id="style455">
	.st0{fill:#61A443;}
	.st1{fill:#FFFFFF;}
	.st2{fill:#8EC649;}
	.st3{fill:#EDEDED;}
	.st4{fill:#FEFEFE;}
	.st5{fill:#FCFCFC;}
	.st6{font-family:'CalisMTBol';}
	.st7{font-size:52.9263px;}
</style>
<g
   id="g463"
   transform="matrix(0.97319981,0,0,1,-225.75737,-23.625)">
	<path
   class="st0"
   d="m 463.6,252.8 -42.2,-17.1 c -4.6,-1.4 -9.2,-2.8 -14.1,-4.1 0,0 -151.9,-30.1 -165,-53.4 -1.1,8.1 -1.7,16.4 -1.7,24.8 0,99.7 80.9,180.6 180.6,180.6 46,0 88,-17.2 119.9,-45.6 -7.1,-24.2 -26.2,-58.8 -77.5,-85.2 z"
   id="path457"
   inkscape:connector-curvature="0"
   style="fill:#61a443" />
	<path
   class="st1"
   d="m 241.4,175.9 c 0.1,0.8 0.4,1.5 0.8,2.3 0.1,-0.4 0.1,-0.9 0.2,-1.4 -0.8,-0.6 -1,-0.9 -1,-0.9 z"
   id="path459"
   inkscape:connector-curvature="0"
   style="fill:#ffffff" />
	<path
   class="st1"
   d="M 556.9,321.8 C 522.1,238.3 419.5,222.7 419.5,222.7 277.2,199.1 247.6,181 242.3,176.8 c -0.1,0.4 -0.1,0.9 -0.2,1.4 13.2,23.3 165,53.4 165,53.4 4.9,1.3 9.6,2.7 14.1,4.1 l 42.2,17.1 c 51.4,26.4 70.4,61 77.3,85.1 5.9,-5 11.2,-10.4 16.2,-16.1 z"
   id="path461"
   inkscape:connector-curvature="0"
   style="fill:#ffffff" />
</g>
<g
   id="g469"
   transform="matrix(0.97319981,0,0,1,-225.75737,-23.625)">
	<path
   class="st2"
   d="M 557.1,323.1 C 584.7,291.4 601.4,250 601.4,204.7 601.4,105 520.5,24.1 420.8,24.1 c -90.6,0 -165.6,66.7 -178.6,153.6 4.8,4 33.5,22.2 177.3,46 0.1,0 102.9,15.7 137.6,99.4 z"
   id="path465"
   inkscape:connector-curvature="0"
   style="fill:#8ec649" />
	<path
   class="st2"
   d="m 241.4,176.9 c 0.1,0.7 0.4,1.3 0.7,2 0.1,-0.4 0.1,-0.8 0.2,-1.2 -0.7,-0.6 -0.9,-0.8 -0.9,-0.8 z"
   id="path467"
   inkscape:connector-curvature="0"
   style="fill:#8ec649" />
</g>
<ellipse
   transform="matrix(0.56545584,-0.82477857,0.8100473,0.58636454,0,0)"
   class="st1"
   cx="-136.94699"
   cy="262.72064"
   rx="35.285831"
   ry="21.80381"
   id="ellipse471"
   style="fill:#ffffff;stroke-width:0.9866541" />
<ellipse
   transform="matrix(0.12209082,-0.99251893,0.9916709,0.12879759,0,0)"
   class="st1"
   cx="-253.37383"
   cy="253.64423"
   rx="28.887802"
   ry="16.843643"
   id="ellipse473"
   style="fill:#ffffff;stroke-width:0.98651403" />
<path
   class="st1"
   d="m 224.63952,176.17502 c 0.68123,0.29998 1.45979,0.59999 2.14102,0.99999"
   id="path475"
   inkscape:connector-curvature="0"
   style="fill:#ffffff;stroke-width:0.98650885" />
<path
   class="st0"
   d="m 145.51837,234.77501 c 0,0 -23.25949,26.4 -26.66569,34.9 0,0 6.3258,-20 20.24257,-34.9 0,0 4.9633,-0.7 6.42312,-1e-5 z"
   id="path477"
   inkscape:connector-curvature="0"
   style="fill:#61a443;stroke-width:0.98650885" />
<path
   class="st0"
   d="m 221.7199,255.475 c 0,0 -6.22848,24.10001 -5.25527,31.20001 0,0 -1.75176,-18.89999 1.84908,-31.90001 0,0 2.433,0.5 3.40619,0.7 z"
   id="path479"
   inkscape:connector-curvature="0"
   style="fill:#61a443;stroke-width:0.98650885" />
<path
   class="st0"
   d="m 1.1928397,249.575 c 0,0 10.9971573,-34.49999 19.6586383,-37.79998 l 4.963319,14 z"
   id="path481"
   inkscape:connector-curvature="0"
   style="fill:#61a443;stroke-width:0.98650885" />
<path
   class="st1"
   d="m 0.025,251.77501 c 0,0 21.799678,-45.99999 47.492152,-53.7 0,0 26.081755,-7.50001 41.750272,5.8 1.265159,0.99999 1.946401,2.60001 2.141039,4.19998 0.583922,5.30002 0.38928,17.00001 -11.678397,22.70002 -15.765838,7.40001 -76.1042267,9.49999 -79.705066,21 z"
   id="path483"
   inkscape:connector-curvature="0"
   style="fill:#ffffff;stroke-width:0.98650885" />
<path
   class="st0"
   d="m 38.563712,222.275 c 0,0 25.692477,-19.6 49.535874,-21.6 l 9.73199,7.7 c 0,0 -39.511907,-0.49999 -59.267864,13.9 z"
   id="path485"
   inkscape:connector-curvature="0"
   style="fill:#61a443;stroke-width:0.98650885" />


<path
   class="st4"
   d="m 258.50686,121.275 c 0,0.1 -0.0973,0.1 -0.0973,0.2 0,0 -0.0974,-0.10002 -0.0974,-0.10002 0.0974,-0.10002 0.0974,-0.20002 0.19464,-0.10001 0,-0.1 0,-0.1 0,0 z"
   id="path491"
   inkscape:connector-curvature="0"
   style="fill:#fefefe;stroke-width:0.98650885" />
<path
   class="st4"
   d="m 235.05275,61.074992 c 0,0 0,0.1 -0.0974,0.10002 0.0974,-2e-5 0.0974,-0.10002 0.0974,-0.10002 z"
   id="path493"
   inkscape:connector-curvature="0"
   style="fill:#fefefe;stroke-width:0.98650885" />
<path
   class="st5"
   d="m 235.05275,61.074992 c 0,0 0,-0.1 0.0974,-0.1 0,0 -0.0974,0 -0.0974,0.1 z"
   id="path495"
   inkscape:connector-curvature="0"
   style="fill:#fcfcfc;stroke-width:0.98650885" />
<path
   class="st1"
   d="m 218.11907,102.075 c 0.38929,1.19999 0.68124,2.3 1.07052,3.5 0.38928,1.1 0.29197,1.59998 -0.97319,1.59999 -4.18477,0.3 -8.36953,5e-5 -12.16501,-2.09999 -2.62763,-1.40001 -4.18475,-3.70001 -5.15795,-6.400009 -1.75177,-4.90001 -3.21156,-10.000011 -5.3526,-14.799991 -0.38929,-0.899999 -0.87586,-1.70002 -1.4598,-2.7 1.4598,-0.2 2.82228,-0.10001 4.28207,-1e-5 4.28209,0.1 8.36955,0.9 12.45697,2.1 3.30888,1.5 6.42312,3.400001 8.85612,6.4 v 0 c 0.0974,0.600001 0.68124,1.00001 1.07052,1.5 0.0974,0.100021 0.19464,0.199991 0.19464,0.299991 0.87589,1.700019 1.55711,3.5 2.23836,5.30001 0.29196,1.99999 0.68124,3.900009 0.29196,5.899989 -0.19464,1.10001 -0.4866,2.2 -1.16785,3.30002 -1.36247,-2.60001 -2.33567,-5.20001 -4.08743,-7.50001 -0.19464,-0.600009 -0.4866,-1.1 -0.9732,-1.5 v 0 c -0.0974,-0.199999 -0.19464,-0.400009 -0.29197,-0.499989 -2.62763,-3.50001 -5.54723,-6.700001 -9.63467,-8.50001 -0.68125,-0.600011 -1.4598,-0.700001 -2.23836,-0.800011 0.48659,0.500021 0.97319,1.00002 1.75175,1.10001 1.84908,1.7 3.79549,3.199991 5.54724,5.1 2.433,2.4 4.18478,5.499991 5.74188,8.70001 z"
   id="path497"
   inkscape:connector-curvature="0"
   style="fill:#ffffff;stroke-width:0.98650885" />
<path
   class="st1"
   d="m 215.49143,71.774982 c -0.29196,0.80001 -0.68124,1.60001 -0.97318,2.499999 -0.29199,0.800009 -0.58393,1.000019 -1.3625,0.400009 -2.53031,-1.900008 -4.67135,-4.099987 -5.83919,-7.099998 -0.77856,-2.09999 -0.5839,-4.1 0.0974,-6.1 1.26515,-3.6 2.82227,-7.100001 3.8928,-10.9 0.19463,-0.69999 0.29197,-1.40001 0.38928,-2.200001 0.87588,0.599991 1.65444,1.4 2.433,2.100001 2.33568,2.10001 4.28206,4.60001 5.93651,7.29999 1.16785,2.50001 2.04372,5.10001 1.94642,7.899999 v 0 c -0.19464,0.400021 -0.0974,0.900021 -0.0974,1.300021 0,0.1 0,0.2 0,0.3 -0.29194,1.39999 -0.77855,2.69999 -1.26515,4.09999 -0.77855,1.20001 -1.4598,2.5 -2.53032,3.399998 -0.68122,0.50001 -1.26515,1.00001 -2.14103,1.30001 0.38928,-2.099998 1.07052,-4.100018 1.16783,-6.200008 0.19464,-0.4 0.29198,-0.89999 0.19464,-1.3 0,0 0,0 0,0 0,-0.1 0.0974,-0.29999 0.0974,-0.39999 0.19464,-3.30001 0,-6.5 -1.45981,-9.5 -0.0973,-0.6 -0.48661,-1.10002 -0.87588,-1.600021 0.0973,0.500011 0.0973,1.000011 0.38927,1.500001 0.29196,1.80001 0.68126,3.70001 0.77856,5.60001 0.29198,2.49999 -0.19463,4.99999 -0.77856,7.59999 z"
   id="path499"
   inkscape:connector-curvature="0"
   style="fill:#ffffff;stroke-width:0.98650885" />
<path
   class="st1"
   d="m 244.0062,48.774992 c -0.0974,0.5 -0.0974,1.1 -0.48661,1.5 v 0 c -0.38929,0.600009 -0.29196,0.400009 -0.38929,0.700009 v 0 c -0.29193,0.399981 -0.38927,0.500001 -0.38927,0.800001 0.0974,-0.10002 0.29197,-0.30001 0.38927,-0.4 0.19465,-1.7e-4 0.29197,-0.10001 0.38929,-0.20001 -0.0974,0.1 -0.19464,0.19999 -0.38929,0.20001 -0.0973,0.1 -0.29193,0.29998 -0.38927,0.4 0,0 0,0.1 0,0.1 -0.0974,0.1 -0.0974,0.1 -0.19463,0.19999 -1.07053,1.700001 -2.33569,3.200011 -3.60085,4.700001 -1.26515,1.400009 -2.43299,3 -3.79547,4.2 -0.68126,1.2 -1.65445,2.1 -2.62763,3.2 -1.65445,1.79999 -3.21159,3.80001 -4.96333,5.6 -0.0973,0.1 -0.19464,0.30001 -0.29197,0.40001 -2.33568,2.79998 -3.50352,5.999988 -3.69816,9.699988 -0.0974,4.09999 0.9732,8.000001 2.53033,11.700001 0.87588,1.599989 1.65444,3.200009 2.53032,4.9 v 0 c 0.19463,0.0999 0.38927,0.3 0.38927,0.599999 0.19465,0.2 0.29195,0.400011 0.4866,0.700001 0.38928,0.599989 0.58391,0.699999 1.16784,0.2 3.4062,-3.100001 6.13116,-6.700011 8.2722,-10.800001 3.01692,-5.9 4.76868,-12.19999 5.25528,-18.799988 0,-0.4 -0.0974,-0.90001 0.29197,-1.30001 0.29194,0.29999 0.29194,0.59999 0.29194,0.89999 0.48661,4.1 0.0974,8.100008 -0.97318,11.999998 -1.65446,6.200019 -4.47673,11.9 -8.07757,17.100019 -0.97319,1.4 -1.94639,2.7 -2.9196,4.10001 2.33569,0.29998 4.28209,-0.50002 6.22849,-1.40002 3.21156,-1.59999 5.93651,-3.8 8.17488,-6.700009 3.40619,-4.399981 5.25527,-9.499991 5.54724,-15.1 0.29195,-4.299979 -0.48661,-8.599998 -1.65445,-12.699979 -0.68125,-2.50001 -1.4598,-4.9 -2.53032,-7.2 -0.38928,-0.7 -0.58391,-1.100011 -0.87589,-1.7 -0.0974,-0.10002 0,-0.2 0,-0.4 0,-0.100001 0,-0.100001 0,-0.200001 -0.38928,-0.700019 -0.48658,-1.000019 -0.68123,-1.500009 v 0 c -0.19463,-1.100011 -0.97321,-1.9 -1.26516,-2.90001"
   id="path501"
   inkscape:connector-curvature="0"
   style="fill:#ffffff;stroke-width:0.98650885" />
<path
   class="st1"
   d="m 138.81399,74.945688 c 10.52519,-6.581738 21.62709,-7.737979 33.01735,-3.557692 1.51391,0.533654 3.0278,1.15625 4.61379,1.778837 0,-0.80048 -0.43254,-0.978347 -0.72091,-1.334134 -2.01852,-2.490375 -4.18123,-4.802875 -6.48812,-6.93749 -7.42531,-7.02645 -15.49942,-12.362988 -25.01535,-13.608171 -10.59728,-1.423077 -19.82485,2.490385 -27.75478,11.20673 -7.49737,8.18269 -12.03905,18.588947 -14.49014,30.507196 -2.1627,10.317326 -2.378969,20.812516 -0.72089,31.218756 1.36971,8.80527 3.89287,17.07693 7.64158,24.72595 0,0.26683 0.0722,0.44471 0.28836,0.62261 0.79299,1.60095 1.58597,3.11296 2.37897,4.71394 0.50464,0.80047 1.15345,1.60095 1.5139,2.57933 4.03704,6.49278 8.79499,12.09615 14.1297,16.98797 5.11841,4.71395 10.23681,9.16106 15.06686,14.31972 3.46035,3.73556 6.77649,7.64903 9.15546,12.6298 2.81154,5.6923 3.82081,11.74037 2.16271,18.23316 -1.00924,4.0024 -2.66733,7.5601 -4.75795,10.85097 -1.00926,1.60095 -2.09062,3.11297 -3.31616,4.89183 5.62306,-1.95675 10.74148,-4.35819 15.35524,-8.1827 2.16272,-1.77886 4.03706,-4.0024 5.47886,-6.75961 3.09989,-6.13701 2.59527,-12.54087 0.79301,-18.94471 -2.23481,-7.82693 -5.9835,-14.67548 -9.7322,-21.4351 -6.12767,-10.93989 -12.90418,-21.34615 -18.38303,-32.90865 -3.31615,-7.02645 -6.05557,-14.3197 -7.13693,-22.41346 -0.0721,-0.80047 -0.14419,-1.60095 -0.21627,-2.40145 0,-2.93509 -0.0721,-5.87016 0.50462,-8.80527 1.51391,-8.18268 5.47887,-14.319713 10.59728,-19.478365 5.83932,-5.781248 12.39954,-9.872603 19.32019,-13.252393 0.93719,-0.44472 1.87438,-0.978383 2.81153,-1.423084 -5.40677,-1.0673 -10.66936,-0.800482 -15.85987,0.978364 -16.72494,5.692315 -27.46643,18.944708 -32.0081,39.668268 -1.44178,6.58172 -1.44178,13.43029 -0.86509,20.18991 -0.28835,0.0889 -0.57669,0.26682 -0.79297,0.35575 -1.80226,-7.91585 -2.16272,-15.92065 -1.00927,-24.01441 2.66733,-18.766828 10.88563,-32.552884 24.43862,-41.002402 z m -21.98756,71.064892 c 0,0.44471 -0.14417,0.80049 -0.28837,1.15625 0.1442,-0.35576 0.28837,-0.80047 0.28837,-1.15625 z"
   id="path503"
   inkscape:connector-curvature="0"
   style="fill:#ffffff;stroke-width:0.80074203" />
<path
   class="st1"
   d="m 294.8595,148.73441 c -0.79207,-1.19998 -1.81045,-2.3 -2.60255,-3.39999 -2.71569,-3.49998 -5.4314,-7 -6.78925,-11.09998 -0.67893,-1.90002 -0.90524,-3.80001 -0.33948,-5.60001 0.33948,-1.5 2.48941,-1.3 3.5078,-2.1 0.2263,-0.19999 0.56578,-0.3 0.79207,-0.50001 -2.94202,-0.89999 1.13156,-1.89999 -0.22629,-2.79999 -1.01839,2.4e-4 -0.90524,1.6 -2.4894,1.29998 3.96039,-7.09997 2.60255,-14.19999 -0.45262,-21.09999 -3.16833,-7.1 -7.92082,-13.500002 -13.46538,-19.399992 -2.82886,-2.999999 -5.65771,-6.00002 -9.27866,-8.7 0,0.5 0,0.700001 0.11322,0.9 5.43143,13.299991 4.18671,26.199992 -2.7157,38.699992 -5.54457,10 -14.03114,17.90002 -23.08349,25.3 -10.18389,8.3 -19.34941,17.3 -26.13868,28.00001 -8.03395,12.80001 -8.03395,25.60001 0.22633,38.4 3.9604,6.09998 9.16551,11.19999 14.71006,16.20001 3.05517,2.79998 6.11034,5.59999 9.50497,8.69999 0.11322,-0.7 0.11322,-0.9 0.11322,-1 -0.56577,-0.7 -1.01836,-1.30001 -1.58415,-2 -8.14713,-9.7 -14.82323,-20.1 -18.44417,-31.80001 -1.35785,-4.29999 -1.92363,-8.59999 -0.79208,-12.99999 1.13153,-4.2 4.1867,-6.3 9.05235,-6.20001 3.05519,-1e-5 6.11034,0.5 9.05236,1.00002 10.74966,1.89999 21.15984,5.19999 31.90953,7.39998 4.86564,1 9.61812,1.20002 14.48375,-0.10001 5.43143,-1.49998 7.12874,-4.19998 5.54458,-8.89998 -0.11321,-0.5 -0.22632,-1.00001 -0.33948,-1.5 -0.45263,-1.90001 0.11322,-3.4 2.37625,-4.3 3.05517,-1.2 3.39463,-2.70001 1.81049,-5.5 -0.45264,-0.70001 -0.67895,-1.3 0,-2 2.14992,-2.00001 2.82884,-4.10001 0.6789,-6.5 0,-1.80001 1.81048,-2.19999 3.05519,-3.00002 3.7341,-1.59998 4.07354,-2.3 1.81046,-5.4 z"
   id="path505"
   inkscape:connector-curvature="0"
   style="fill:#ffffff;stroke-width:1.06374049" />

<path
   class="st1"
   d="m 221.7199,216.87499 c 0,0 8.85611,21.20003 0,38.60001 0,0 1.45981,-28.80001 -4.47672,-35.5 -5.93652,-6.8 4.47672,-3.10001 4.47672,-3.10001 z"
   id="path513"
   inkscape:connector-curvature="0"
   style="fill:#ffffff;stroke-width:0.98650885" />
</svg>